<?xml version="1.0" encoding="UTF-8" standalone="no"?>
<!-- Generator: Adobe Illustrator 13.0.0, SVG Export Plug-In . SVG Version: 6.00 Build 14948)  -->
<svg
   xmlns:dc="http://purl.org/dc/elements/1.1/"
   xmlns:cc="http://creativecommons.org/ns#"
   xmlns:rdf="http://www.w3.org/1999/02/22-rdf-syntax-ns#"
   xmlns:svg="http://www.w3.org/2000/svg"
   xmlns="http://www.w3.org/2000/svg"
   xmlns:sodipodi="http://sodipodi.sourceforge.net/DTD/sodipodi-0.dtd"
   xmlns:inkscape="http://www.inkscape.org/namespaces/inkscape"
   version="1.0"
   id="Layer_1"
   x="0px"
   y="0px"
   width="300"
   height="300"
   viewBox="0 0 800 600"
   enable-background="new 0 0 800 600"
   xml:space="preserve"
   sodipodi:version="0.32"
   inkscape:version="0.46"
   sodipodi:docname="ncc.svg"
   inkscape:output_extension="org.inkscape.output.svg.inkscape"
   inkscape:export-filename="/home/shx/code/web/ncclient/ncc.png"
   inkscape:export-xdpi="90"
   inkscape:export-ydpi="90"><metadata
   id="metadata42"><rdf:RDF><cc:Work
       rdf:about=""><dc:format>image/svg+xml</dc:format><dc:type
         rdf:resource="http://purl.org/dc/dcmitype/StillImage" /></cc:Work></rdf:RDF></metadata><defs
   id="defs40"><inkscape:perspective
     sodipodi:type="inkscape:persp3d"
     inkscape:vp_x="0 : 300 : 1"
     inkscape:vp_y="0 : 1000 : 0"
     inkscape:vp_z="800 : 300 : 1"
     inkscape:persp3d-origin="400 : 200 : 1"
     id="perspective44" /></defs><sodipodi:namedview
   inkscape:window-height="995"
   inkscape:window-width="1400"
   inkscape:pageshadow="2"
   inkscape:pageopacity="0.0"
   guidetolerance="10.0"
   gridtolerance="10.0"
   objecttolerance="10.0"
   borderopacity="1.0"
   bordercolor="#666666"
   pagecolor="#ffffff"
   id="base"
   showgrid="false"
   inkscape:zoom="1"
   inkscape:cx="186.53402"
   inkscape:cy="8.7260487"
   inkscape:window-x="-5"
   inkscape:window-y="30"
   inkscape:current-layer="Layer_1" />
<polygon
   points="211.584,186.603 256.917,141.27 304.917,189.27 256.584,237.604 210.251,191.271 211.584,186.603 "
   id="polygon3"
   style="fill:#fbb03b"
   transform="matrix(3.9622978,0,0,3.9551866,-622.60286,-440.61578)" />
<path
   id="path5"
   style="fill:none;stroke:#000000;stroke-width:6" />
<g
   id="g7"
   transform="matrix(3.9622978,0,0,3.9551866,-622.60286,-440.61578)">
	<g
   id="g9">
		<path
   d="M 167.917,277.603 C 167.917,277.603 167.917,259.603 167.917,237.603 C 167.917,215.603 185.917,197.603 207.917,197.603 C 229.917,197.603 247.917,215.603 247.917,237.603 C 247.917,259.603 247.917,277.603 247.917,277.603"
   id="path11"
   style="fill:none" />
		<path
   d="M 178.417,277.603 C 178.417,273.005 178.417,268.407 178.417,263.809 C 178.417,258.913 178.417,254.018 178.417,249.122 C 178.417,244.083 177.895,238.241 178.636,233.526 C 180.942,218.859 193.313,208.357 207.917,208.103 C 222.858,207.843 234.455,219.286 237.198,233.526 C 237.979,237.581 237.417,242.892 237.417,247.279 C 237.417,252.311 237.417,257.342 237.417,262.374 C 237.417,267.451 237.417,272.527 237.417,277.603 C 237.417,291.145 258.417,291.145 258.417,277.603 C 258.417,271.517 258.417,265.43 258.417,259.343 C 258.417,247.245 259.694,234.444 256.16,222.712 C 249.798,201.589 229.656,187.481 207.916,187.103 C 185.746,186.718 166.599,202.245 159.673,222.712 C 155.951,233.71 157.416,246.344 157.416,257.751 C 157.416,264.368 157.416,270.985 157.416,277.603 C 157.417,291.145 178.417,291.145 178.417,277.603 L 178.417,277.603 z"
   id="path13" />
	</g>
</g>
<g
   id="g15"
   transform="matrix(3.9622978,0,0,3.9551866,-622.60286,-440.61578)">
	<g
   id="g17">
		<path
   d="M 348.251,277.603 C 348.251,277.603 330.251,277.603 308.251,277.603 C 286.251,277.603 268.251,259.603 268.251,237.603 C 268.251,215.603 286.251,197.603 308.251,197.603 C 330.251,197.603 348.251,197.603 348.251,197.603"
   id="path19"
   style="fill:none" />
		<path
   d="M 348.251,267.103 C 343.653,267.103 339.055,267.103 334.457,267.103 C 329.561,267.103 324.666,267.103 319.77,267.103 C 314.731,267.103 308.889,267.625 304.173,266.884 C 289.506,264.578 279.004,252.207 278.75,237.603 C 278.49,222.663 289.934,211.065 304.173,208.322 C 308.144,207.557 313.351,208.103 317.652,208.103 C 323.045,208.103 328.438,208.103 333.83,208.103 C 338.637,208.103 343.443,208.103 348.25,208.103 C 361.792,208.103 361.792,187.103 348.25,187.103 C 342.483,187.103 336.716,187.103 330.949,187.103 C 318.969,187.103 306.335,185.88 294.642,188.974 C 273.253,194.632 258.901,214.62 257.775,236.204 C 256.612,258.483 271.927,277.829 292.095,285.418 C 303.392,289.669 316.585,288.103 328.399,288.103 C 335.016,288.103 341.633,288.103 348.251,288.103 C 361.793,288.102 361.793,267.102 348.251,267.103 L 348.251,267.103 z"
   id="path21" />
	</g>
</g>
<g
   id="g23"
   transform="matrix(3.9622978,0,0,3.9551866,-622.60286,-440.61578)">
	<g
   id="g25">
		<path
   d="M 348.251,96.937 C 348.251,96.937 348.251,114.937 348.251,136.937 C 348.251,158.937 330.251,176.937 308.251,176.937 C 286.251,176.937 268.251,158.937 268.251,136.937 C 268.251,114.937 268.251,96.937 268.251,96.937"
   id="path27"
   style="fill:none" />
		<path
   d="M 337.751,96.937 C 337.751,101.535 337.751,106.133 337.751,110.731 C 337.751,115.627 337.751,120.522 337.751,125.418 C 337.751,130.457 338.273,136.3 337.532,141.014 C 335.226,155.681 322.856,166.183 308.252,166.437 C 293.311,166.697 281.714,155.254 278.971,141.014 C 278.206,137.043 278.752,131.836 278.752,127.535 C 278.752,122.142 278.752,116.75 278.752,111.357 C 278.752,106.55 278.752,101.744 278.752,96.937 C 278.752,83.395 257.752,83.395 257.752,96.937 C 257.752,102.704 257.752,108.471 257.752,114.239 C 257.752,126.218 256.53,138.852 259.623,150.546 C 265.281,171.935 285.27,186.287 306.854,187.413 C 329.133,188.576 348.478,173.261 356.068,153.093 C 360.319,141.796 358.753,128.603 358.753,116.789 C 358.753,110.172 358.753,103.554 358.753,96.937 C 358.751,83.395 337.751,83.395 337.751,96.937 L 337.751,96.937 z"
   id="path29" />
	</g>
</g>
<g
   id="g31"
   transform="matrix(3.9622978,0,0,3.9551866,-622.60286,-440.61578)">
	<g
   id="g33">
		<path
   d="M 168.917,96.937 C 168.917,96.937 186.917,96.937 208.917,96.937 C 230.917,96.937 248.917,114.937 248.917,136.937 C 248.917,158.937 230.917,176.937 208.917,176.937 C 186.917,176.937 168.917,176.937 168.917,176.937"
   id="path35"
   style="fill:none" />
		<path
   d="M 168.917,107.437 C 183.528,107.437 198.536,106.387 213.078,107.653 C 226.863,108.853 237.698,122.223 238.393,135.538 C 239.172,150.465 228.551,162.712 214.327,165.96 C 210.329,166.874 205.441,166.436 201.119,166.436 C 195.462,166.436 189.804,166.436 184.147,166.436 C 179.07,166.436 173.994,166.436 168.918,166.436 C 155.376,166.436 155.376,187.436 168.918,187.436 C 175.004,187.436 181.091,187.436 187.178,187.436 C 199.276,187.436 212.076,188.713 223.809,185.179 C 244.932,178.817 259.039,158.675 259.417,136.936 C 259.802,114.766 244.275,95.619 223.809,88.693 C 212.515,84.871 199.453,86.436 187.734,86.436 C 181.462,86.436 175.19,86.436 168.918,86.436 C 155.375,86.437 155.375,107.437 168.917,107.437 L 168.917,107.437 z"
   id="path37" />
	</g>
</g>
</svg>